<svg width="24" height="24" viewBox="0 0 24 24" fill="none" xmlns="http://www.w3.org/2000/svg">
<path d="M18.293 4.29297C18.6835 3.90244 19.3165 3.90244 19.707 4.29297C20.0976 4.68349 20.0976 5.31651 19.707 5.70703L18.6729 6.74023C20.4176 8.46271 21.5 10.8545 21.5 13.5C21.5 18.7467 17.2467 23 12 23C6.75332 23 2.5 18.7467 2.5 13.5C2.5 8.25332 6.75332 4 12 4C13.877 4 15.6252 4.5469 17.0986 5.48633L18.293 4.29297ZM12 8C11.4477 8 11 8.44772 11 9V13.5C11 14.0523 11.4477 14.5 12 14.5C12.5523 14.5 13 14.0523 13 13.5V9C13 8.44772 12.5523 8 12 8ZM15.5 1C16.0523 1 16.5 1.44772 16.5 2C16.5 2.55228 16.0523 3 15.5 3H8.5C7.94772 3 7.5 2.55228 7.5 2C7.5 1.44772 7.94772 1 8.5 1H15.5Z" fill="#20FBFB"/>
</svg>
