<svg width="24" height="24" viewBox="0 0 24 24" fill="none" xmlns="http://www.w3.org/2000/svg">
<path d="M16 1C16.5523 1 17 1.44772 17 2V3H18C20.7614 3 23 5.23858 23 8V18C23 20.7614 20.7614 23 18 23H6C3.23858 23 1 20.7614 1 18V8C1 5.23858 3.23858 3 6 3H7V2C7 1.44772 7.44772 1 8 1C8.55228 1 9 1.44772 9 2V3H15V2C15 1.44772 15.4477 1 16 1ZM6 5C4.34315 5 3 6.34315 3 8V18C3 19.6569 4.34315 21 6 21H18C19.6569 21 21 19.6569 21 18V8C21 6.34315 19.6569 5 18 5H17V6C17 6.55228 16.5523 7 16 7C15.4477 7 15 6.55228 15 6V5H9V6C9 6.55228 8.55228 7 8 7C7.44772 7 7 6.55228 7 6V5H6ZM16 15C16.5523 15 17 15.4477 17 16C17 16.5523 16.5523 17 16 17H8C7.44771 17 7 16.5523 7 16C7 15.4477 7.44771 15 8 15H16ZM16 10C16.5523 10 17 10.4477 17 11C17 11.5523 16.5523 12 16 12H8C7.44771 12 7 11.5523 7 11C7 10.4477 7.44771 10 8 10H16Z" fill="white"/>
</svg>
