<svg width="24" height="24" viewBox="0 0 24 24" fill="none" xmlns="http://www.w3.org/2000/svg">
<path d="M16 1C16.5523 1 17 1.44772 17 2V3H18C20.7614 3 23 5.23858 23 8V18C23 20.7614 20.7614 23 18 23H6C3.23858 23 1 20.7614 1 18V8C1 5.23858 3.23858 3 6 3H7V2C7 1.44772 7.44772 1 8 1C8.55228 1 9 1.44772 9 2V3H15V2C15 1.44772 15.4477 1 16 1ZM8 15C7.44771 15 7 15.4477 7 16C7 16.5523 7.44771 17 8 17H16C16.5523 17 17 16.5523 17 16C17 15.4477 16.5523 15 16 15H8ZM8 10C7.44771 10 7 10.4477 7 11C7 11.5523 7.44771 12 8 12H16C16.5523 12 17 11.5523 17 11C17 10.4477 16.5523 10 16 10H8Z" fill="#20FBFB"/>
</svg>
