<svg width="24" height="24" viewBox="0 0 24 24" fill="none" xmlns="http://www.w3.org/2000/svg">
<path d="M16 21C16.5523 21 17 21.4477 17 22C17 22.5523 16.5523 23 16 23H8C7.44771 23 7 22.5523 7 22C7 21.4477 7.44771 21 8 21H16ZM18 1C20.7614 1 23 3.23858 23 6V14C23 16.7614 20.7614 19 18 19H6C3.23858 19 1 16.7614 1 14V6C1 3.23858 3.23858 1 6 1H18ZM6 3C4.34315 3 3 4.34315 3 6V14C3 15.6569 4.34315 17 6 17H18C19.6569 17 21 15.6569 21 14V6C21 4.34315 19.6569 3 18 3H6ZM8 9C8.55228 9 9 9.44772 9 10V14C9 14.5523 8.55228 15 8 15C7.44772 15 7 14.5523 7 14V10C7 9.44772 7.44772 9 8 9ZM12 5C12.5523 5 13 5.44772 13 6V14C13 14.5523 12.5523 15 12 15C11.4477 15 11 14.5523 11 14V6C11 5.44772 11.4477 5 12 5ZM16 7C16.5523 7 17 7.44772 17 8V14C17 14.5523 16.5523 15 16 15C15.4477 15 15 14.5523 15 14V8C15 7.44772 15.4477 7 16 7Z" fill="white"/>
</svg>
