<svg width="24" height="24" viewBox="0 0 24 24" fill="none" xmlns="http://www.w3.org/2000/svg">
<path d="M12 4C17.2467 4 21.5 8.25332 21.5 13.5C21.5 18.7467 17.2467 23 12 23C6.75332 23 2.5 18.7467 2.5 13.5C2.5 8.25332 6.75332 4 12 4ZM12 6C7.85788 6 4.5 9.35788 4.5 13.5C4.5 17.6421 7.85788 21 12 21C16.1421 21 19.5 17.6421 19.5 13.5C19.5 9.35788 16.1421 6 12 6ZM12 8C12.5523 8 13 8.44772 13 9V13.5C13 14.0523 12.5523 14.5 12 14.5C11.4477 14.5 11 14.0523 11 13.5V9C11 8.44772 11.4477 8 12 8ZM15.5 1C16.0523 1 16.5 1.44772 16.5 2C16.5 2.55228 16.0523 3 15.5 3H8.5C7.94772 3 7.5 2.55228 7.5 2C7.5 1.44772 7.94772 1 8.5 1H15.5Z" fill="white"/>
</svg>
