<svg width="24" height="24" viewBox="0 0 24 24" fill="none" xmlns="http://www.w3.org/2000/svg">
<path d="M16 21C16.5523 21 17 21.4477 17 22C17 22.5523 16.5523 23 16 23H8C7.44771 23 7 22.5523 7 22C7 21.4477 7.44771 21 8 21H16ZM18 1C20.7614 1 23 3.23858 23 6V14C23 16.7614 20.7614 19 18 19H6C3.23858 19 1 16.7614 1 14V6C1 3.23858 3.23858 1 6 1H18ZM8 9C7.44772 9 7 9.44772 7 10V14C7 14.5523 7.44772 15 8 15C8.55228 15 9 14.5523 9 14V10C9 9.44772 8.55228 9 8 9ZM12 5C11.4477 5 11 5.44772 11 6V14C11 14.5523 11.4477 15 12 15C12.5523 15 13 14.5523 13 14V6C13 5.44772 12.5523 5 12 5ZM16 7C15.4477 7 15 7.44772 15 8V14C15 14.5523 15.4477 15 16 15C16.5523 15 17 14.5523 17 14V8C17 7.44772 16.5523 7 16 7Z" fill="#20FBFB"/>
</svg>
